<svg xmlns="http://www.w3.org/2000/svg" viewBox="0 0 1366 679" preserveAspectRatio="xMidYMid" width="1366" height="679" xmlns:xlink="http://www.w3.org/1999/xlink" style="shape-rendering:auto;display:block;background-position-x:0%;background-position-y:0%;background-size:auto;background-origin:padding-box;background-clip:border-box;background:scroll rgb(210, 211, 212) none  repeat;width:1366px;height:679px;;animation:none"><g style="transform:matrix(1, 0, 0, -1, 0, 679);;animation:none"><defs><linearGradient id="lg-bk-n2c88aimwtj" x1="0" x2="0" y1="0" y2="1"><stop stop-color="#f4f4f2" stop-opacity="0" offset="0"></stop>

  
<stop stop-color="#f4f4f2" stop-opacity="1" offset="0.8250000000000001"></stop></linearGradient>


<linearGradient id="lg-jg6mq6wfbyj" x1="0" x2="0" y1="0" y2="1"><stop stop-color="#495464" offset="0"></stop>

  
<stop stop-color="#bbbfca" offset="0.37"></stop>

  
<stop stop-color="#e8e8e8" offset="1"></stop></linearGradient></defs>


<rect x="0" y="0" width="1366" height="679" fill="url(#lg-bk-n2c88aimwtj)" style="fill:url('#lg-bk-n2c88aimwtj');;animation:none"></rect>
<g transform="matrix(1,0,0,1,0,0)" style="transform:matrix(1, 0, 0, 1, 0, 0);;animation:none"><path d="M0 448.14000000000004
C683 448.14000000000004 683 515.0894000000001 1366 515.0894000000001
C2049 515.0894000000001 2049 448.14000000000004 2732 448.14000000000004
C3415 448.14000000000004 3415 515.0894000000001 4098 515.0894000000001
C4781 515.0894000000001 4781 448.14000000000004 5464 448.14000000000004
L5464 679 L0 679 Z" fill="url(#lg-jg6mq6wfbyj)" opacity="0.4" transform="matrix(1,0,0,1,-2732,0)" style="fill:url('#lg-jg6mq6wfbyj');transform:matrix(1, 0, 0, 1, -2732, 0);opacity:0.4;;animation:none"></path></g>
<g transform="matrix(1,0,0,1,0,7.311387062072754)" style="transform:matrix(1, 0, 0, 1, 0, 7.31139);;animation:none"><path d="M0 448.14000000000004
C683 448.14000000000004 683 515.0894000000001 1366 515.0894000000001
C2049 515.0894000000001 2049 448.14000000000004 2732 448.14000000000004
C3415 448.14000000000004 3415 515.0894000000001 4098 515.0894000000001
C4781 515.0894000000001 4781 448.14000000000004 5464 448.14000000000004
L5464 679 L0 679 Z" fill="url(#lg-jg6mq6wfbyj)" opacity="0.4" transform="matrix(1,0,0,1,-2604.5068359375,0)" style="fill:url('#lg-jg6mq6wfbyj');transform:matrix(1, 0, 0, 1, -2604.51, 0);opacity:0.4;;animation:none"></path></g>
<g transform="matrix(1,0,0,1,0,7.3113884925842285)" style="transform:matrix(1, 0, 0, 1, 0, 7.31139);;animation:none"><path d="M0 448.14000000000004
C683 448.14000000000004 683 515.0894000000001 1366 515.0894000000001
C2049 515.0894000000001 2049 448.14000000000004 2732 448.14000000000004
C3415 448.14000000000004 3415 515.0894000000001 4098 515.0894000000001
C4781 515.0894000000001 4781 448.14000000000004 5464 448.14000000000004
L5464 679 L0 679 Z" fill="url(#lg-jg6mq6wfbyj)" opacity="0.4" transform="matrix(1,0,0,1,-2477.013427734375,0)" style="fill:url('#lg-jg6mq6wfbyj');transform:matrix(1, 0, 0, 1, -2477.01, 0);opacity:0.4;;animation:none"></path></g>
<g></g></g><!-- [ldio] generated by https://loading.io --></svg>